# xmcd CD database file
#
# Track frame offsets:
#	150
#	25680
#	61435
#	100485
#	132890
#	159000
#	185823
#	228700
#
# Disc length: 3345 seconds
#
# Revision: 0
# Processed by: cddbd v1.5.2PL0 Copyright (c) Steve Scherf et al.
# Submitted via: CDex 1.75
#
DISCID=660d0f08
DTITLE=The Ray Brown Trio - Live at the Loa
DYEAR=1988
DGENRE=Jazz
TTITLE0=Summer Wind
TTITLE1=The Real Blues
TTITLE2=Li'l Darlin'
TTITLE3=It Don't Mean A Thing If It Ain't Got That Swing
TTITLE4=Mona Lisa
TTITLE5=Buhaina Buhaina
TTITLE6=Can't Help Lovin' Dat Man
TTITLE7=Bluesology
EXTD=YEAR: 1988
EXTT0=
EXTT1=
EXTT2=
EXTT3=
EXTT4=
EXTT5=
EXTT6=
EXTT7=
PLAYORDER=
